<?xml version="1.0" standalone="no"?>
<!DOCTYPE svg PUBLIC "-//W3C//DTD SVG 20010904//EN"
 "http://www.w3.org/TR/2001/REC-SVG-20010904/DTD/svg10.dtd">
<svg version="1.0" xmlns="http://www.w3.org/2000/svg"
 width="180.000000pt" height="180.000000pt" viewBox="0 0 180.000000 180.000000"
 preserveAspectRatio="xMidYMid meet">
<metadata>
Created by potrace 1.14, written by Peter Selinger 2001-2017
</metadata>
<g transform="translate(0.000000,180.000000) scale(0.100000,-0.100000)"
fill="#000000" stroke="none">
<path d="M1252 1484 c-159 -33 -278 -138 -298 -264 l-7 -41 74 3 c73 3 73 3
81 35 11 41 61 91 118 117 36 17 65 21 145 21 88 0 107 -3 149 -25 95 -49 136
-141 98 -221 -38 -80 -116 -120 -249 -127 l-93 -5 0 -63 c0 -35 3 -64 8 -65 4
-1 41 -2 83 -4 172 -5 279 -82 279 -200 0 -81 -51 -148 -139 -182 -47 -18
-195 -25 -252 -11 -40 10 -102 43 -126 70 -26 27 -55 93 -46 102 4 3 -29 6
-71 6 l-78 0 7 -42 c19 -114 107 -207 238 -254 61 -22 111 -28 207 -27 277 5
457 196 393 418 -18 61 -104 148 -163 166 -22 7 -40 15 -40 19 0 3 16 12 36
19 89 32 164 141 164 237 0 144 -84 252 -238 303 -76 26 -197 32 -280 15z"/>
<path d="M301 1474 c-76 -20 -115 -41 -171 -91 -62 -56 -101 -131 -115 -224
-6 -43 6 -50 76 -47 l64 3 6 36 c9 56 42 111 88 146 50 39 97 53 172 53 178 0
285 -132 237 -294 -13 -44 -81 -116 -277 -296 -114 -105 -115 -105 -259 -238
l-101 -94 0 -58 1 -59 406 2 407 2 3 67 3 68 -248 -1 c-136 0 -272 0 -300 0
l-53 1 63 57 c34 31 107 97 161 147 54 50 108 99 120 109 77 67 167 164 191
209 40 73 47 205 16 288 -37 98 -106 162 -217 201 -73 26 -198 32 -273 13z"/>
</g>
</svg>
